<?xml version="1.0" encoding="utf-8"?>
<!-- Generator: Adobe Illustrator 20.1.0, SVG Export Plug-In . SVG Version: 6.00 Build 0)  -->
<svg version="1.1" id="Layer_1" xmlns="http://www.w3.org/2000/svg" xmlns:xlink="http://www.w3.org/1999/xlink" x="0px" y="0px"
	 viewBox="0 0 23.3 19.4" style="enable-background:new 0 0 23.3 19.4;" xml:space="preserve">
<style type="text/css">
	.st0{fill:none;}
</style>
<g>
	<path class="st0" d="M6.2,4.8H2.4c-0.2,0-0.1-0.1-0.1,0.1V17c0,0.2-0.1,0.8,0.1,0.8h3.9V4.8z"/>
	<circle class="st0" cx="14" cy="11" r="4.5"/>
	<path class="st0" d="M20.9,4.8h-1.8c-0.3,0-0.6-0.4-0.8-0.6l-1.7-2.4h-5.3L9.7,4.2C9.5,4.4,9.2,4.8,8.9,4.8H7.2v13h13.7
		c0.2,0,0.3-0.6,0.3-0.8V4.9C21.2,4.7,21.1,4.8,20.9,4.8z M14,16.4c-3,0-5.5-2.4-5.5-5.5c0-3,2.4-5.5,5.5-5.5c3,0,5.5,2.4,5.5,5.5
		C19.5,14,17,16.4,14,16.4z"/>
	<path d="M14,5.5C11,5.5,8.6,8,8.6,11c0,3,2.4,5.5,5.5,5.5c3,0,5.5-2.4,5.5-5.5C19.5,8,17,5.5,14,5.5z M14,15.4
		c-2.5,0-4.5-2-4.5-4.5c0-2.5,2-4.5,4.5-4.5c2.5,0,4.5,2,4.5,4.5C18.5,13.4,16.5,15.4,14,15.4z"/>
	<path d="M20.9,2.8h-1.3l-1.7-2.4c-0.2-0.2-0.5-0.6-0.8-0.6h-6.3c-0.3,0-0.6,0.4-0.8,0.6L8.4,2.8h-6c-1.3,0-2.1,0.8-2.1,2.1V17
		c0,1.3,0.8,2.8,2.1,2.8h18.5c1.3,0,2.3-1.5,2.3-2.8V4.9C23.2,3.6,22.2,2.8,20.9,2.8z M2.2,17V4.9c0-0.2-0.1-0.1,0.1-0.1h3.9v13H2.4
		C2.2,17.8,2.2,17.2,2.2,17z M21.2,17c0,0.2-0.1,0.8-0.3,0.8H7.2v-13h1.7c0.3,0,0.6-0.4,0.8-0.6l1.7-2.4h5.3l1.7,2.4
		c0.2,0.2,0.5,0.6,0.8,0.6h1.8c0.2,0,0.3-0.1,0.3,0.1V17z"/>
</g>
</svg>
